<svg xmlns="http://www.w3.org/2000/svg" id="my-svg" width="100%" aria-roledescription="flowchart-v2" class="flowchart" style="font-size:14px;fill:#0f172a;max-width:999.08px;background-color:transparent" viewBox="0 0 999.08 1199.927"><style><![CDATA[@keyframes edge-animation-frame{0%{stroke-dashoffset:0}}@keyframes dash{to{stroke-dashoffset:0}}#my-svg .edge-thickness-normal{stroke-width:1px}#my-svg .edge-pattern-solid{stroke-dasharray:0}#my-svg .edge-pattern-dotted{stroke-dasharray:2}#my-svg .marker{fill:#475569;stroke:#475569}#my-svg .marker.cross{stroke:#475569}#my-svg svg{font-size:14px}#my-svg p{margin:0}#my-svg .label,#my-svg span{color:#0f172a}#my-svg .cluster span,#my-svg .cluster-label span{color:#090600}#my-svg .cluster-label span p{background-color:transparent}#my-svg span{fill:#0f172a}#my-svg .node circle,#my-svg .node path,#my-svg .node rect{fill:#fff4dd;stroke:#edb;stroke-width:1px}#my-svg .flowchart-link{stroke:#475569;fill:none}#my-svg .edgeLabel,#my-svg .node .label{text-align:center}#my-svg .edgeLabel,#my-svg .edgeLabel p{background-color:#fdd}#my-svg .edgeLabel rect{opacity:.5;background-color:#fdd;fill:#fdd}#my-svg .labelBkg{background-color:rgba(244,221,255,.5)}#my-svg .cluster rect{fill:#f6f9ff;stroke:#cfdbf3;stroke-width:1px}#my-svg [data-look=neo].cluster rect,#my-svg [data-look=neo].node circle,#my-svg [data-look=neo].node rect{stroke:url(#my-svg-gradient);filter:drop-shadow(1px 2px 2px #b9b9b9)}#my-svg [data-look=neo].node path{stroke:url(#my-svg-gradient);stroke-width:1px}#my-svg [data-look=neo].node .outer-path{filter:drop-shadow(1px 2px 2px #b9b9b9)}#my-svg :root{--mermaid-font-family:"trebuchet ms",verdana,arial,sans-serif}#my-svg .source span,#my-svg .source>*{fill:#cffafe!important;stroke:#0891b2!important}#my-svg .data span,#my-svg .data>*,#my-svg .process>*,#my-svg .source span,#my-svg .source>*{color:#0f172a!important;stroke-width:2px!important}#my-svg .process>*{fill:#e0f2fe!important;stroke:#0369a1!important}#my-svg .data span,#my-svg .data>*{fill:#ccfbf1!important;stroke:#0f766e!important}#my-svg .decision span,#my-svg .decision>*,#my-svg .wip span,#my-svg .wip>*{fill:#fee2e2!important;stroke:#dc2626!important;color:#0f172a!important;stroke-width:2px!important}#my-svg .wip span,#my-svg .wip>*{fill:#fff7ed!important;stroke-dasharray:6,4!important}]]></style><marker id="my-svg_flowchart-v2-pointEnd" class="marker flowchart-v2" markerHeight="8" markerUnits="userSpaceOnUse" markerWidth="8" orient="auto" refX="5" refY="5" viewBox="0 0 10 10"><path d="m0 0 10 5-10 5z" class="arrowMarkerPath" style="stroke-width:1;stroke-dasharray:1,0"/></marker><marker id="my-svg_flowchart-v2-pointStart" class="marker flowchart-v2" markerHeight="8" markerUnits="userSpaceOnUse" markerWidth="8" orient="auto" refX="4.5" refY="5" viewBox="0 0 10 10"><path d="m0 5 10 5V0z" class="arrowMarkerPath" style="stroke-width:1;stroke-dasharray:1,0"/></marker><marker id="my-svg_flowchart-v2-pointEnd-margin" class="marker flowchart-v2" markerHeight="14" markerUnits="userSpaceOnUse" markerWidth="10.5" orient="auto" refX="11.5" refY="7" viewBox="0 0 11.5 14"><path d="m0 0 11.5 7L0 14z" class="arrowMarkerPath" style="stroke-width:0;stroke-dasharray:1,0"/></marker><marker id="my-svg_flowchart-v2-pointStart-margin" class="marker flowchart-v2" markerHeight="14" markerUnits="userSpaceOnUse" markerWidth="11.5" orient="auto" refX="1" refY="7" viewBox="0 0 11.5 14"><path d="m0 7 11.5 7V0z" class="arrowMarkerPath" style="stroke-width:0;stroke-dasharray:1,0"/></marker><marker id="my-svg_flowchart-v2-circleEnd" class="marker flowchart-v2" markerHeight="11" markerUnits="userSpaceOnUse" markerWidth="11" orient="auto" refX="11" refY="5" viewBox="0 0 10 10"><circle cx="5" cy="5" r="5" class="arrowMarkerPath" style="stroke-width:1;stroke-dasharray:1,0"/></marker><marker id="my-svg_flowchart-v2-circleStart" class="marker flowchart-v2" markerHeight="11" markerUnits="userSpaceOnUse" markerWidth="11" orient="auto" refX="-1" refY="5" viewBox="0 0 10 10"><circle cx="5" cy="5" r="5" class="arrowMarkerPath" style="stroke-width:1;stroke-dasharray:1,0"/></marker><marker id="my-svg_flowchart-v2-circleEnd-margin" class="marker flowchart-v2" markerHeight="14" markerUnits="userSpaceOnUse" markerWidth="14" orient="auto" refX="12.25" refY="5" viewBox="0 0 10 10"><circle cx="5" cy="5" r="5" class="arrowMarkerPath" style="stroke-width:0;stroke-dasharray:1,0"/></marker><marker id="my-svg_flowchart-v2-circleStart-margin" class="marker flowchart-v2" markerHeight="14" markerUnits="userSpaceOnUse" markerWidth="14" orient="auto" refX="-2" refY="5" viewBox="0 0 10 10"><circle cx="5" cy="5" r="5" class="arrowMarkerPath" style="stroke-width:0;stroke-dasharray:1,0"/></marker><marker id="my-svg_flowchart-v2-crossEnd" class="marker cross flowchart-v2" markerHeight="11" markerUnits="userSpaceOnUse" markerWidth="11" orient="auto" refX="12" refY="5.2" viewBox="0 0 11 11"><path d="m1 1 9 9m0-9-9 9" class="arrowMarkerPath" style="stroke-width:2;stroke-dasharray:1,0"/></marker><marker id="my-svg_flowchart-v2-crossStart" class="marker cross flowchart-v2" markerHeight="11" markerUnits="userSpaceOnUse" markerWidth="11" orient="auto" refX="-1" refY="5.2" viewBox="0 0 11 11"><path d="m1 1 9 9m0-9-9 9" class="arrowMarkerPath" style="stroke-width:2;stroke-dasharray:1,0"/></marker><marker id="my-svg_flowchart-v2-crossEnd-margin" class="marker cross flowchart-v2" markerHeight="12" markerUnits="userSpaceOnUse" markerWidth="12" orient="auto" refX="17.7" refY="7.5" viewBox="0 0 15 15"><path d="m1 1 13 13M1 14 14 1" class="arrowMarkerPath" style="stroke-width:2.5"/></marker><marker id="my-svg_flowchart-v2-crossStart-margin" class="marker cross flowchart-v2" markerHeight="12" markerUnits="userSpaceOnUse" markerWidth="12" orient="auto" refX="-3.5" refY="7.5" viewBox="0 0 15 15"><path d="m1 1 13 13M1 14 14 1" class="arrowMarkerPath" style="stroke-width:2.5;stroke-dasharray:1,0"/></marker><g class="root"><g class="edgePaths"><path id="my-svg-L_CACHE_TARGET_0" marker-end="url(#my-svg_flowchart-v2-pointEnd)" d="M499.54 261.846v59" class="edge-thickness-normal edge-pattern-dotted edge-thickness-normal edge-pattern-solid flowchart-link" data-edge="true" data-et="edge" data-id="L_CACHE_TARGET_0" data-look="classic" data-points="W3sieCI6NDk5LjU0MDAzOTA2MjUsInkiOjI2MS44NDU4ODYyMzA0Njg3NX0seyJ4Ijo0OTkuNTQwMDM5MDYyNSwieSI6MjkzLjM0NTg4NjIzMDQ2ODc1fSx7IngiOjQ5OS41NDAwMzkwNjI1LCJ5IjozMjQuODQ1ODg2MjMwNDY4NzV9XQ=="/></g><g class="edgeLabels"><g class="edgeLabel"><foreignObject width="179.625" height="21" class="label" data-id="L_CACHE_TARGET_0" transform="translate(409.728 282.846)"><div xmlns="http://www.w3.org/1999/xhtml" class="labelBkg" style="display:table-cell;white-space:nowrap;line-height:1.5;max-width:200px;text-align:center"><span class="edgeLabel"><p>schema contract to preserve</p></span></div></foreignObject></g></g><g class="nodes"><g class="root"><g class="clusters" transform="translate(71.978 316.846)"><g id="my-svg-NEXT" class="cluster" data-look="classic"><path d="M8 8h839.125v867.081H8z" style="fill:#fff7ed!important;stroke:#dc2626!important;stroke-width:2px!important;stroke-dasharray:6 4!important"/><foreignObject width="148.969" height="21" class="cluster-label" transform="translate(353.078 8)"><div xmlns="http://www.w3.org/1999/xhtml" style="display:table-cell;white-space:nowrap;line-height:1.5"><span class="nodeLabel"><p>Next — prototype / WIP</p></span></div></foreignObject></g></g><g class="edgePaths" transform="translate(71.978 316.846)"><path id="my-svg-L_DRAW_PY_0" marker-end="url(#my-svg_flowchart-v2-pointEnd)" d="m369.852 78-.084 7.25c-.083 7.25-.25 21.75 27.8 37.216s84.317 31.897 112.451 40.113l28.133 8.216" class="edge-thickness-normal edge-pattern-dotted edge-thickness-normal edge-pattern-solid flowchart-link" data-edge="true" data-et="edge" data-id="L_DRAW_PY_0" data-look="classic" data-points="W3sieCI6MzY5Ljg1MTU2MjUsInkiOjc4fSx7IngiOjM2OS4zNTE1NjI1LCJ5IjoxMjEuNX0seyJ4Ijo1NDEuOTkxODQ0NzgwMDE5NywieSI6MTcxLjkxNjAwMjIzNTk5NjA3fV0="/><path id="my-svg-L_MATCH_PY_0" marker-end="url(#my-svg_flowchart-v2-pointEnd)" d="m725.496 78-.083 7.25c-.084 7.25-.25 21.75-10.388 36.034-10.137 14.285-30.245 28.354-40.299 35.388l-10.054 7.035" class="edge-thickness-normal edge-pattern-dotted edge-thickness-normal edge-pattern-solid flowchart-link" data-edge="true" data-et="edge" data-id="L_MATCH_PY_0" data-look="classic" data-points="W3sieCI6NzI1LjQ5NjA5Mzc1LCJ5Ijo3OH0seyJ4Ijo3MjQuOTk2MDkzNzUsInkiOjEyMS41fSx7IngiOjY2MS4zOTUwMTYxNjM3OTMxLCJ5IjoxNjZ9XQ=="/><path id="my-svg-L_PY_DERIVE_0" marker-end="url(#my-svg_flowchart-v2-pointEnd)" d="m619.875 223-.083 7.25c-.084 7.25-.25 21.75-.258 35.75-.007 14 .144 27.5.22 34.25l.076 6.75" class="edge-thickness-normal edge-pattern-dotted edge-thickness-normal edge-pattern-solid flowchart-link" data-edge="true" data-et="edge" data-id="L_PY_DERIVE_0" data-look="classic" data-points="W3sieCI6NjE5Ljg3NSwieSI6MjIyLjk5OTk5OTk5OTk5OTg2fSx7IngiOjYxOS4zNzUsInkiOjI2Ni41fSx7IngiOjYxOS44NzUsInkiOjMxMX1d"/><path id="my-svg-L_HIST_TARGET_0" marker-end="url(#my-svg_flowchart-v2-pointEnd)" d="m156.07 582.844-.083 18.89c-.083 18.891-.25 56.672 24.514 85.225s74.459 47.878 99.306 57.541l24.848 9.662" class="edge-thickness-normal edge-pattern-dotted edge-thickness-normal edge-pattern-solid flowchart-link" data-edge="true" data-et="edge" data-id="L_HIST_TARGET_0" data-look="classic" data-points="W3sieCI6MTU2LjA3MDMxMjUsInkiOjU4Mi44NDM3NX0seyJ4IjoxNTUuNTcwMzEyNSwieSI6Njk2LjE4NzV9LHsieCI6MzA4LjM4MjgxMjUsInkiOjc1NS42MTIxMDczMjE4OTI1fV0="/><path id="my-svg-L_LIVE_TARGET_0" marker-end="url(#my-svg_flowchart-v2-pointEnd)" d="M399.086 643.789v92.399" class="edge-thickness-normal edge-pattern-dotted edge-thickness-normal edge-pattern-solid flowchart-link" data-edge="true" data-et="edge" data-id="L_LIVE_TARGET_0" data-look="classic" data-points="W3sieCI6Mzk5LjA4NTkzNzUsInkiOjY0My43ODkwNjI1fSx7IngiOjM5OS4wODU5Mzc1LCJ5Ijo2OTYuMTg3NX0seyJ4IjozOTkuMDg1OTM3NSwieSI6NzQwLjE4NzV9XQ=="/><path id="my-svg-L_DERIVE_VALIDATE_0" marker-end="url(#my-svg_flowchart-v2-pointEnd)" d="m619.875 368-.083 7.25c-.084 7.25-.25 21.75-.334 35.667-.083 13.916-.083 27.25-.083 33.916v6.667" class="edge-thickness-normal edge-pattern-dotted edge-thickness-normal edge-pattern-solid flowchart-link" data-edge="true" data-et="edge" data-id="L_DERIVE_VALIDATE_0" data-look="classic" data-points="W3sieCI6NjE5Ljg3NSwieSI6MzY4fSx7IngiOjYxOS4zNzUsInkiOjQxMS41fSx7IngiOjYxOS4zNzUsInkiOjQ1NS41fV0="/><path id="my-svg-L_VALIDATE_TARGET_0" marker-end="url(#my-svg_flowchart-v2-pointEnd)" d="M619.375 652.188v7.333c0 7.333 0 22-21.012 40.766s-63.036 41.631-84.048 53.063l-21.012 11.433" class="edge-thickness-normal edge-pattern-dotted edge-thickness-normal edge-pattern-solid flowchart-link" data-edge="true" data-et="edge" data-id="L_VALIDATE_TARGET_0" data-look="classic" data-points="W3sieCI6NjE5LjM3NSwieSI6NjUyLjE4NzV9LHsieCI6NjE5LjM3NSwieSI6Njk2LjE4NzV9LHsieCI6NDg5Ljc4OTA2MjUsInkiOjc2Ni42OTQyNjc1OTI3NDk3fV0="/></g><g class="edgeLabels"><g class="edgeLabel"><foreignObject width="23.641" height="21" class="label" data-id="L_DRAW_PY_0" transform="translate(429.509 427.846)"><div xmlns="http://www.w3.org/1999/xhtml" class="labelBkg" style="display:table-cell;white-space:nowrap;line-height:1.5;max-width:200px;text-align:center"><span class="edgeLabel"><p>WIP</p></span></div></foreignObject></g><g class="edgeLabel"><foreignObject width="23.641" height="21" class="label" data-id="L_MATCH_PY_0" transform="translate(785.153 427.846)"><div xmlns="http://www.w3.org/1999/xhtml" class="labelBkg" style="display:table-cell;white-space:nowrap;line-height:1.5;max-width:200px;text-align:center"><span class="edgeLabel"><p>WIP</p></span></div></foreignObject></g><g class="edgeLabel"><foreignObject width="23.641" height="21" class="label" data-id="L_PY_DERIVE_0" transform="translate(679.538 573.346)"><div xmlns="http://www.w3.org/1999/xhtml" class="labelBkg" style="display:table-cell;white-space:nowrap;line-height:1.5;max-width:200px;text-align:center"><span class="edgeLabel"><p>WIP</p></span></div></foreignObject></g><g class="edgeLabel"><foreignObject width="23.641" height="21" class="label" data-id="L_HIST_TARGET_0" transform="translate(215.728 1002.533)"><div xmlns="http://www.w3.org/1999/xhtml" class="labelBkg" style="display:table-cell;white-space:nowrap;line-height:1.5;max-width:200px;text-align:center"><span class="edgeLabel"><p>WIP</p></span></div></foreignObject></g><g class="edgeLabel"><foreignObject width="77.922" height="21" class="label" data-id="L_LIVE_TARGET_0" transform="translate(432.103 1002.533)"><div xmlns="http://www.w3.org/1999/xhtml" class="labelBkg" style="display:table-cell;white-space:nowrap;line-height:1.5;max-width:200px;text-align:center"><span class="edgeLabel"><p>not selected</p></span></div></foreignObject></g><g class="edgeLabel"><foreignObject width="23.641" height="21" class="label" data-id="L_DERIVE_VALIDATE_0" transform="translate(679.532 717.846)"><div xmlns="http://www.w3.org/1999/xhtml" class="labelBkg" style="display:table-cell;white-space:nowrap;line-height:1.5;max-width:200px;text-align:center"><span class="edgeLabel"><p>WIP</p></span></div></foreignObject></g><g class="edgeLabel"><foreignObject width="164" height="21" class="label" data-id="L_VALIDATE_TARGET_0" transform="translate(609.353 1002.533)"><div xmlns="http://www.w3.org/1999/xhtml" class="labelBkg" style="display:table-cell;white-space:nowrap;line-height:1.5;max-width:200px;text-align:center"><span class="edgeLabel"><p>only after shadow cutover</p></span></div></foreignObject></g></g><g class="nodes" transform="translate(71.978 316.846)"><g id="my-svg-flowchart-DRAW-13" class="node default source" data-look="classic"><path d="M-18 0h152.656l18-36H0z" class="label-container" style="fill:#cffafe!important;stroke:#0891b2!important;stroke-width:2px!important" transform="translate(302.023 77.5)"/><g class="label" style="color:#0f172a!important" transform="translate(309.523 49)"><rect/><foreignObject width="119.656" height="21"><div xmlns="http://www.w3.org/1999/xhtml" style="color:#0f172a!important;display:table-cell;white-space:nowrap;line-height:1.5;max-width:200px;text-align:center"><span class="nodeLabel" style="color:#0f172a!important"><p>nrl.com draw JSON</p></span></div></foreignObject></g></g><g id="my-svg-flowchart-PY-17" class="node default wip" data-look="classic"><g class="basic label-container outer-path"><path stroke="none" stroke-width="0" d="M-60.516-28.5H60.516l1.826.059 1.818.175 1.804.292 1.78.406 1.752.52 1.715.63 1.67.74 1.62.845 1.562.947 1.499 1.046 1.428 1.139 1.353 1.228 1.27 1.312 1.185 1.392 1.093 1.464c.235.362.47.724.996 1.53l.897 1.593.792 1.646.686 1.693.576 1.734.463 1.767.35 1.793.233 1.812L89-.913V.913l-.117 1.824-.234 1.812-.349 1.793-.463 1.767-.576 1.734-.686 1.693-.792 1.646-.897 1.592-.996 1.531-1.093 1.464-1.184 1.392-1.271 1.312-1.353 1.228-1.428 1.14-1.499 1.045-1.562.947-1.62.845-1.67.74c-.467.17-.933.342-1.715.63l-1.751.52-1.781.406-1.804.292-1.818.175-1.826.059H-60.516l-1.826-.059-1.818-.175-1.804-.292-1.78-.406-1.752-.52-1.715-.63-1.67-.74-1.62-.845-1.562-.947-1.499-1.046-1.428-1.139-1.353-1.228-1.27-1.312-1.185-1.392-1.093-1.464-.996-1.53-.897-1.593-.792-1.646-.686-1.693-.576-1.734-.463-1.767c-.09-.464-.18-.929-.35-1.793l-.233-1.812L-89 .913V-.913l.117-1.824.234-1.812.349-1.793.463-1.767.576-1.734.686-1.693.792-1.646.897-1.592.996-1.531 1.093-1.464 1.184-1.392 1.271-1.312 1.353-1.228 1.428-1.14 1.499-1.045 1.562-.947 1.62-.845 1.67-.74 1.715-.63 1.751-.52 1.781-.406 1.804-.292 1.818-.175 1.826-.059" style="fill:#fff7ed!important;stroke:#dc2626!important;stroke-width:2px!important;stroke-dasharray:6 4!important" transform="translate(619.375 194)"/><path fill="none" stroke-dasharray="6 4" stroke-width="2" d="M-60.516-28.5H60.516m-121.032 0H60.516m0 0 1.826.059m-1.826-.059 1.826.059m0 0 1.818.175m-1.818-.175 1.818.175m0 0 1.804.292m-1.804-.292 1.804.292m0 0 1.78.406m-1.78-.406 1.78.406m0 0 1.752.52m-1.751-.52 1.751.52m0 0 1.715.63m-1.715-.63 1.715.63m0 0c.347.155.694.308 1.67.74m-1.67-.74 1.67.74m0 0 1.62.845m-1.62-.845 1.62.845m0 0 1.562.947m-1.562-.947 1.562.947m0 0 1.499 1.046m-1.499-1.046 1.499 1.046m0 0 1.428 1.139m-1.428-1.14 1.428 1.14m0 0 1.353 1.228m-1.353-1.228 1.353 1.228m0 0 1.27 1.312m-1.27-1.312 1.27 1.312m0 0 1.185 1.392m-1.184-1.392 1.184 1.392m0 0 1.093 1.464m-1.093-1.464 1.093 1.464m0 0 .996 1.53m-.996-1.53.996 1.53m0 0 .897 1.593m-.897-1.592.897 1.592m0 0 .792 1.646m-.792-1.646.792 1.646m0 0 .686 1.693m-.686-1.693.686 1.693m0 0 .576 1.734m-.576-1.734.576 1.734m0 0 .463 1.767m-.463-1.767.463 1.767m0 0 .35 1.793m-.35-1.793.35 1.793m0 0c.08.63.162 1.261.233 1.812m-.234-1.812.234 1.812m0 0L89-.913m-.117-1.824L89-.913m0 0V.913m0-1.826V.913m0 0-.117 1.824M89 .913l-.117 1.824m0 0-.234 1.812m.234-1.812-.234 1.812m0 0L88.3 6.342m.35-1.793-.35 1.793m0 0-.463 1.767m.463-1.767-.463 1.767m0 0-.576 1.734m.576-1.734-.576 1.734m0 0-.686 1.693m.686-1.693-.686 1.693m0 0-.792 1.646m.792-1.646-.792 1.646m0 0-.897 1.592m.897-1.592-.897 1.592m0 0-.996 1.531m.996-1.53-.996 1.53m0 0-1.093 1.464m1.093-1.464-1.093 1.464m0 0-1.184 1.392m1.184-1.392-1.184 1.392m0 0-1.271 1.312m1.27-1.312-1.27 1.312m0 0-1.353 1.228m1.353-1.228-1.353 1.228m0 0c-.51.407-1.02.813-1.428 1.14m1.428-1.14-1.428 1.14m0 0c-.59.41-1.178.82-1.499 1.045m1.499-1.046-1.499 1.046m0 0-1.562.947m1.562-.947-1.562.947m0 0-1.62.845m1.62-.845-1.62.845m0 0-1.67.74m1.67-.74-1.67.74m0 0-1.715.63m1.715-.63-1.715.63m0 0-1.751.52m1.751-.52-1.751.52m0 0-1.781.406m1.78-.406-1.78.406m0 0-1.804.292m1.804-.292-1.804.292m0 0-1.818.175m1.818-.175-1.818.175m0 0-1.826.059m1.826-.059-1.826.059m0 0H-60.516m121.032 0H-60.516m0 0-1.826-.059m1.826.059c-.48-.015-.96-.03-1.826-.059m0 0-1.818-.175m1.818.175-1.818-.175m0 0-1.804-.292m1.804.292-1.804-.292m0 0-1.78-.406m1.78.406-1.78-.406m0 0-1.752-.52m1.751.52-1.751-.52m0 0-1.715-.63m1.715.63-1.715-.63m0 0-1.67-.74m1.67.74-1.67-.74m0 0c-.488-.255-.975-.51-1.62-.845m1.62.845-1.62-.845m0 0-1.562-.947m1.562.947-1.562-.947m0 0-1.499-1.046m1.499 1.046-1.499-1.046m0 0-1.428-1.139m1.428 1.14-1.428-1.14m0 0-1.353-1.228m1.353 1.228-1.353-1.228m0 0-1.27-1.312m1.27 1.312-1.27-1.312m0 0-1.185-1.392m1.184 1.392-1.184-1.392m0 0-1.093-1.464m1.093 1.464-1.093-1.464m0 0-.996-1.53m.996 1.53-.996-1.53m0 0-.897-1.593m.897 1.592-.897-1.592m0 0-.792-1.646m.792 1.646-.792-1.646m0 0-.686-1.693m.686 1.693-.686-1.693m0 0-.576-1.734m.576 1.734-.576-1.734m0 0-.463-1.767m.463 1.767-.463-1.767m0 0-.35-1.793m.35 1.793-.35-1.793m0 0-.233-1.812m.234 1.812-.234-1.812m0 0L-89 .913m.117 1.824L-89 .913m0 0V-.913m0 1.826V-.913m0 0 .117-1.824M-89-.913l.117-1.824m0 0 .234-1.812m-.234 1.812.234-1.812m0 0 .349-1.793m-.35 1.793.35-1.793m0 0 .463-1.767m-.463 1.767.463-1.767m0 0 .576-1.734m-.576 1.734.576-1.734m0 0 .686-1.693m-.686 1.693.686-1.693m0 0 .792-1.646m-.792 1.646.792-1.646m0 0 .897-1.592m-.897 1.592.897-1.592m0 0 .996-1.531m-.996 1.53.996-1.53m0 0 1.093-1.464m-1.093 1.464 1.093-1.464m0 0 1.184-1.392m-1.184 1.392 1.184-1.392m0 0 1.271-1.312m-1.27 1.312 1.27-1.312m0 0 1.353-1.228m-1.353 1.228 1.353-1.228m0 0 1.428-1.14m-1.428 1.14 1.428-1.14m0 0 1.499-1.045m-1.499 1.046 1.499-1.046m0 0 1.562-.947m-1.562.947c.497-.3.994-.602 1.562-.947m0 0 1.62-.845m-1.62.845 1.62-.845m0 0c.486-.215.973-.43 1.67-.74m-1.67.74 1.67-.74m0 0 1.715-.63m-1.715.63c.478-.175.956-.35 1.715-.63m0 0 1.751-.52m-1.751.52 1.751-.52m0 0 1.781-.406m-1.78.406 1.78-.406m0 0 1.804-.292m-1.804.292 1.804-.292m0 0 1.818-.175m-1.818.175 1.818-.175m0 0 1.826-.059m-1.826.059 1.826-.059m0 0" style="fill:#fff7ed!important;stroke:#dc2626!important;stroke-width:2px!important;stroke-dasharray:6 4!important" transform="translate(619.375 194)"/></g><g class="label" style="color:#0f172a!important" transform="translate(544.984 173)"><rect/><foreignObject width="148.781" height="42"><div xmlns="http://www.w3.org/1999/xhtml" style="color:#0f172a!important;display:table-cell;white-space:nowrap;line-height:1.5;max-width:200px;text-align:center"><span class="nodeLabel" style="color:#0f172a!important"><p>Python nrl_data refresh<br/>not called by CLI or R</p></span></div></foreignObject></g></g><g id="my-svg-flowchart-MATCH-14" class="node default source" data-look="classic"><path d="M-18 0h169.828l18-36H0z" class="label-container" style="fill:#cffafe!important;stroke:#0891b2!important;stroke-width:2px!important" transform="translate(649.082 77.5)"/><g class="label" style="color:#0f172a!important" transform="translate(656.582 49)"><rect/><foreignObject width="136.828" height="21"><div xmlns="http://www.w3.org/1999/xhtml" style="color:#0f172a!important;display:table-cell;white-space:nowrap;line-height:1.5;max-width:200px;text-align:center"><span class="nodeLabel" style="color:#0f172a!important"><p>nrl.com match centre</p></span></div></foreignObject></g></g><g id="my-svg-flowchart-DERIVE-18" class="node default wip" data-look="classic"><g class="basic label-container outer-path"><path stroke="none" stroke-width="0" d="M-62.195-28.5h124.39l1.826.059 1.819.175c.624.1 1.247.202 1.803.292l1.781.406 1.752.52 1.714.63 1.671.74 1.62.845 1.562.947 1.498 1.046 1.429 1.139 1.352 1.228 1.271 1.312 1.185 1.392 1.092 1.464.997 1.53.896 1.593.793 1.646.686 1.693.575 1.734.464 1.767c.075.388.15.776.349 1.793l.234 1.812.117 1.824V.913l-.117 1.824-.234 1.812-.35 1.793-.463 1.767-.575 1.734-.686 1.693-.793 1.646-.896 1.592-.997 1.531-1.092 1.464-1.185 1.392-1.27 1.312-1.353 1.228-1.429 1.14-1.498 1.045-1.562.947-1.62.845-1.67.74-1.715.63-1.752.52-1.78.406-1.804.292-1.819.175-1.826.059h-124.39l-1.826-.059-1.819-.175-1.803-.292-1.781-.406-1.752-.52-1.714-.63-1.671-.74-1.62-.845-1.562-.947-1.498-1.046-1.429-1.139-1.352-1.228-1.271-1.312-1.185-1.392-1.092-1.464-.997-1.53-.896-1.593-.793-1.646-.686-1.693-.575-1.734-.464-1.767-.349-1.793-.234-1.812c-.04-.641-.082-1.282-.117-1.824V-.913l.117-1.824.234-1.812.35-1.793.463-1.767.575-1.734.686-1.693.793-1.646.896-1.592.997-1.531 1.092-1.464 1.185-1.392 1.27-1.312c.31-.28.62-.562 1.353-1.228l1.429-1.14 1.498-1.045 1.562-.947q.809-.42 1.62-.845l1.67-.74 1.715-.63 1.752-.52 1.78-.406 1.804-.292 1.819-.175 1.826-.059" style="fill:#fff7ed!important;stroke:#dc2626!important;stroke-width:2px!important;stroke-dasharray:6 4!important" transform="translate(619.375 339)"/><path fill="none" stroke-dasharray="6 4" stroke-width="2" d="M-62.195-28.5h124.39m-124.39 0h124.39m0 0 1.826.059m-1.826-.059 1.826.059m0 0 1.819.175m-1.819-.175 1.819.175m0 0 1.803.292m-1.803-.292 1.803.292m0 0 1.781.406m-1.78-.406 1.78.406m0 0 1.752.52m-1.752-.52 1.752.52m0 0 1.714.63m-1.714-.63 1.714.63m0 0 1.671.74m-1.67-.74 1.67.74m0 0c.362.19.724.378 1.62.845m-1.62-.845 1.62.845m0 0 1.562.947m-1.562-.947 1.562.947m0 0 1.498 1.046m-1.498-1.046 1.498 1.046m0 0 1.429 1.139m-1.429-1.14 1.429 1.14m0 0 1.352 1.228m-1.352-1.228 1.352 1.228m0 0 1.271 1.312m-1.27-1.312c.318.33.637.658 1.27 1.312m0 0 1.185 1.392m-1.185-1.392 1.185 1.392m0 0 1.092 1.464m-1.092-1.464 1.092 1.464m0 0 .997 1.53m-.997-1.53.997 1.53m0 0 .896 1.593m-.896-1.592.896 1.592m0 0 .793 1.646m-.793-1.646.793 1.646m0 0 .686 1.693m-.686-1.693.686 1.693m0 0 .575 1.734m-.575-1.734.575 1.734m0 0 .464 1.767m-.464-1.767.464 1.767m0 0 .349 1.793m-.35-1.793.35 1.793m0 0 .234 1.812m-.234-1.812.234 1.812m0 0 .117 1.824m-.117-1.824.117 1.824m0 0V.913m0-1.826V.913m0 0-.117 1.824M90.68.913l-.117 1.824m0 0-.234 1.812m.234-1.812-.234 1.812m0 0-.35 1.793m.35-1.793-.35 1.793m0 0-.463 1.767m.464-1.767-.464 1.767m0 0-.575 1.734m.575-1.734-.575 1.734m0 0-.686 1.693m.686-1.693-.686 1.693m0 0-.793 1.646m.793-1.646-.793 1.646m0 0-.896 1.592m.896-1.592-.896 1.592m0 0-.997 1.531m.997-1.53-.997 1.53m0 0-1.092 1.464m1.092-1.464-1.092 1.464m0 0-1.185 1.392m1.185-1.392-1.185 1.392m0 0-1.27 1.312m1.27-1.312-1.27 1.312m0 0-1.353 1.228m1.352-1.228-1.352 1.228m0 0-1.429 1.14m1.429-1.14-1.429 1.14m0 0-1.498 1.045m1.498-1.046-1.498 1.046m0 0-1.562.947m1.562-.947-1.562.947m0 0-1.62.845m1.62-.845-1.62.845m0 0c-.566.25-1.132.5-1.67.74m1.67-.74-1.67.74m0 0-1.715.63m1.714-.63-1.714.63m0 0-1.752.52m1.752-.52-1.752.52m0 0-1.78.406m1.78-.406-1.78.406m0 0-1.804.292m1.803-.292-1.803.292m0 0-1.819.175m1.819-.175-1.819.175m0 0-1.826.059m1.826-.059-1.826.059m0 0h-124.39m124.39 0h-124.39m0 0-1.826-.059m1.826.059-1.826-.059m0 0-1.819-.175m1.819.175-1.819-.175m0 0-1.803-.292m1.803.292-1.803-.292m0 0-1.781-.406m1.78.406c-.443-.1-.887-.202-1.78-.406m0 0-1.752-.52m1.752.52-1.752-.52m0 0-1.714-.63m1.714.63-1.714-.63m0 0c-.476-.211-.95-.422-1.671-.74m1.67.74c-.393-.175-.787-.35-1.67-.74m0 0-1.62-.845m1.62.845-1.62-.845m0 0-1.562-.947m1.562.947-1.562-.947m0 0-1.498-1.046m1.498 1.046-1.498-1.046m0 0-1.429-1.139m1.429 1.14-1.429-1.14m0 0-1.352-1.228m1.352 1.228-1.352-1.228m0 0-1.271-1.312m1.27 1.312-1.27-1.312m0 0-1.185-1.392m1.185 1.392-1.185-1.392m0 0-1.092-1.464m1.092 1.464-1.092-1.464m0 0-.997-1.53m.997 1.53-.997-1.53m0 0-.896-1.593m.896 1.592-.896-1.592m0 0-.793-1.646m.793 1.646-.793-1.646m0 0-.686-1.693m.686 1.693-.686-1.693m0 0-.575-1.734m.575 1.734-.575-1.734m0 0-.464-1.767m.464 1.767-.464-1.767m0 0-.349-1.793m.35 1.793-.35-1.793m0 0-.234-1.812m.234 1.812-.234-1.812m0 0L-90.68.913m.117 1.824L-90.68.913m0 0V-.913m0 1.826V-.913m0 0 .117-1.824m-.117 1.824.117-1.824m0 0 .234-1.812m-.234 1.812.234-1.812m0 0 .35-1.793m-.35 1.793.35-1.793m0 0c.095-.365.19-.73.463-1.767m-.464 1.767.464-1.767m0 0 .575-1.734m-.575 1.734.575-1.734m0 0 .686-1.693m-.686 1.693.686-1.693m0 0 .793-1.646m-.793 1.646.793-1.646m0 0 .896-1.592m-.896 1.592.896-1.592m0 0 .997-1.531m-.997 1.53.997-1.53m0 0 1.092-1.464m-1.092 1.464 1.092-1.464m0 0 1.185-1.392m-1.185 1.392 1.185-1.392m0 0 1.27-1.312m-1.27 1.312 1.27-1.312m0 0 1.353-1.228m-1.352 1.228 1.352-1.228m0 0 1.429-1.14m-1.429 1.14 1.429-1.14m0 0 1.498-1.045m-1.498 1.046 1.498-1.046m0 0 1.562-.947m-1.562.947 1.562-.947m0 0 1.62-.845m-1.62.845 1.62-.845m0 0 1.67-.74m-1.67.74c.408-.18.815-.36 1.67-.74m0 0 1.715-.63m-1.714.63 1.714-.63m0 0 1.752-.52m-1.752.52 1.752-.52m0 0 1.78-.406m-1.78.406 1.78-.406m0 0 1.804-.292m-1.803.292 1.803-.292m0 0 1.819-.175m-1.819.175 1.819-.175m0 0 1.826-.059m-1.826.059 1.826-.059m0 0" style="fill:#fff7ed!important;stroke:#dc2626!important;stroke-width:2px!important;stroke-dasharray:6 4!important" transform="translate(619.375 339)"/></g><g class="label" style="color:#0f172a!important" transform="translate(543.305 318)"><rect/><foreignObject width="152.141" height="42"><div xmlns="http://www.w3.org/1999/xhtml" style="color:#0f172a!important;display:table-cell;white-space:nowrap;line-height:1.5;max-width:200px;text-align:center"><span class="nodeLabel" style="color:#0f172a!important"><p>Derive ladder and<br/>performance aggregates</p></span></div></foreignObject></g></g><g id="my-svg-flowchart-HIST-15" class="node default source" data-look="classic"><path d="M-28.5 0h214.64l28.5-57H0z" class="label-container" style="fill:#cffafe!important;stroke:#0891b2!important;stroke-width:2px!important" transform="translate(62.5 582.344)"/><g class="label" style="color:#0f172a!important" transform="translate(70 532.844)"><rect/><foreignObject width="171.141" height="42"><div xmlns="http://www.w3.org/1999/xhtml" style="color:#0f172a!important;display:table-cell;white-space:nowrap;line-height:1.5;max-width:200px;text-align:center"><span class="nodeLabel" style="color:#0f172a!important"><p>Historical odds source<br/>terms and matching review</p></span></div></foreignObject></g></g><g id="my-svg-flowchart-TARGET-20" class="node default wip" data-look="classic"><path d="M0 14.801a90.703 14.801 0 0 0 181.406 0A90.703 14.801 0 0 0 0 14.801v71.801a90.703 14.801 0 0 0 181.406 0v-71.8" class="basic label-container outer-path" style="fill:#fff7ed!important;stroke:#dc2626!important;stroke-width:2px!important;stroke-dasharray:6 4!important" transform="translate(308.383 740.182)"/><g class="label" style="color:#0f172a!important" transform="translate(315.883 779.884)"><rect/><foreignObject width="166.406" height="42"><div xmlns="http://www.w3.org/1999/xhtml" style="color:#0f172a!important;display:table-cell;white-space:nowrap;line-height:1.5;max-width:200px;text-align:center"><span class="nodeLabel" style="color:#0f172a!important"><p>Same feed_cache schemas<br/>plus odds ledger</p></span></div></foreignObject></g></g><g id="my-svg-flowchart-LIVE-16" class="node default decision" data-look="classic"><path d="m89.945 0 89.946-89.945-89.946-89.946L0-89.945z" class="label-container" style="fill:#fee2e2!important;stroke:#dc2626!important;stroke-width:2px!important" transform="translate(309.64 643.79)"/><g class="label" style="color:#0f172a!important" transform="translate(345.14 532.844)"><rect/><foreignObject width="107.891" height="42"><div xmlns="http://www.w3.org/1999/xhtml" style="color:#0f172a!important;display:table-cell;white-space:nowrap;line-height:1.5;max-width:200px;text-align:center"><span class="nodeLabel" style="color:#0f172a!important"><p>Live odds<br/>provider decision</p></span></div></foreignObject></g></g><g id="my-svg-flowchart-VALIDATE-19" class="node default decision" data-look="classic"><path d="m98.344 0 98.344-98.344-98.344-98.343L0-98.344z" class="label-container" style="fill:#fee2e2!important;stroke:#dc2626!important;stroke-width:2px!important" transform="translate(521.531 652.188)"/><g class="label" style="color:#0f172a!important" transform="translate(557.031 532.844)"><rect/><foreignObject width="124.688" height="42"><div xmlns="http://www.w3.org/1999/xhtml" style="color:#0f172a!important;display:table-cell;white-space:nowrap;line-height:1.5;max-width:200px;text-align:center"><span class="nodeLabel" style="color:#0f172a!important"><p>Parity and temporal<br/>validation passes?</p></span></div></foreignObject></g></g></g></g><g class="root"><g class="clusters"><g id="my-svg-NOW" class="cluster" data-look="classic"><path d="M8 8h983.08v253.846H8z" style="fill:#f8fafc!important;stroke:#0f766e!important;stroke-width:2px!important"/><foreignObject width="122.516" height="21" class="cluster-label" transform="translate(438.282 8)"><div xmlns="http://www.w3.org/1999/xhtml" style="display:table-cell;white-space:nowrap;line-height:1.5"><span class="nodeLabel"><p>Today — production</p></span></div></foreignObject></g></g><g class="edgePaths"><path id="my-svg-L_XML_RPREP_0" marker-end="url(#my-svg_flowchart-v2-pointEnd)" d="m295.391 142.197 7.875-.083c7.875-.084 23.625-.25 36.5-.26s22.875.137 27.875.211l5 .073" class="edge-thickness-normal edge-pattern-solid edge-thickness-normal edge-pattern-solid flowchart-link" data-edge="true" data-et="edge" data-id="L_XML_RPREP_0" data-look="classic" data-points="W3sieCI6Mjk1LjM5MDYyNSwieSI6MTQyLjE5NzAxMTk0NzYzMTg0fSx7IngiOjM0Mi42NDA2MjUsInkiOjE0MS42OTcwMTE5NDc2MzE4NH0seyJ4IjozNzYuNjQwNjI1MDAwMDAxMzYsInkiOjE0Mi4xOTcwMTE5NDc2MzE4Nn1d"/><path id="my-svg-L_RPREP_CACHE_0" marker-end="url(#my-svg_flowchart-v2-pointEnd)" d="m497.817 114.513 9.127-5.213c9.127-5.213 27.382-15.638 41.426-20.851 14.043-5.213 23.877-5.213 28.793-5.213h4.917" class="edge-thickness-normal edge-pattern-solid edge-thickness-normal edge-pattern-solid flowchart-link" data-edge="true" data-et="edge" data-id="L_RPREP_CACHE_0" data-look="classic" data-points="W3sieCI6NDk3LjgxNzE5ODk5MzM2NzcsInkiOjExNC41MTM0NTk5MzY2NDE2fSx7IngiOjU1Mi41ODAwOTMzODM3ODkxLCJ5Ijo4My4yMzU1Mzg0ODI2NjYwMn0seyJ4Ijo1ODYuMDgwMDkzMzgzNzg5MSwieSI6ODMuMjM1NTM4NDgyNjY2MDJ9XQ=="/><path id="my-svg-L_RPREP_ODDS_0" marker-end="url(#my-svg_flowchart-v2-pointEnd)" d="m497.817 169.881 9.127 5.046c9.127 5.046 27.382 15.139 45.006 20.185 17.625 5.046 34.62 5.046 43.117 5.046h8.497" class="edge-thickness-normal edge-pattern-solid edge-thickness-normal edge-pattern-solid flowchart-link" data-edge="true" data-et="edge" data-id="L_RPREP_ODDS_0" data-look="classic" data-points="W3sieCI6NDk3LjgxNzE5ODk5MzM2MzMsInkiOjE2OS44ODA1NjM5NTg2MTk2M30seyJ4Ijo1NTIuNTgwMDkzMzgzNzg5MSwieSI6MjAwLjE1ODQ4NTQxMjU5NzY2fSx7IngiOjYwNy41NjQ0NjgzODM3ODkxLCJ5IjoyMDAuMTU4NDg1NDEyNTk3NjZ9XQ=="/><path id="my-svg-L_CACHE_TABLES_0" marker-end="url(#my-svg_flowchart-v2-pointEnd)" d="M740.689 83.236h63" class="edge-thickness-normal edge-pattern-solid edge-thickness-normal edge-pattern-solid flowchart-link" data-edge="true" data-et="edge" data-id="L_CACHE_TABLES_0" data-look="classic" data-points="W3sieCI6NzQwLjY4OTQ2ODM4Mzc4OTEsInkiOjgzLjIzNTUzODQ4MjY2NjAyfSx7IngiOjc3NC4xODk0NjgzODM3ODkxLCJ5Ijo4My4yMzU1Mzg0ODI2NjYwMn0seyJ4Ijo4MDcuNjg5NDY4MzgzNzg5MSwieSI6ODMuMjM1NTM4NDgyNjY2MDJ9XQ=="/></g><g class="edgeLabels"><g class="edgeLabel"><foreignObject width="0" height="0" class="label" data-id="L_XML_RPREP_0"><div xmlns="http://www.w3.org/1999/xhtml" class="labelBkg" style="display:table-cell;white-space:nowrap;line-height:1.5;max-width:200px;text-align:center"><span class="edgeLabel"/></div></foreignObject></g><g class="edgeLabel"><foreignObject width="0" height="0" class="label" data-id="L_RPREP_CACHE_0"><div xmlns="http://www.w3.org/1999/xhtml" class="labelBkg" style="display:table-cell;white-space:nowrap;line-height:1.5;max-width:200px;text-align:center"><span class="edgeLabel"/></div></foreignObject></g><g class="edgeLabel"><foreignObject width="0" height="0" class="label" data-id="L_RPREP_ODDS_0"><div xmlns="http://www.w3.org/1999/xhtml" class="labelBkg" style="display:table-cell;white-space:nowrap;line-height:1.5;max-width:200px;text-align:center"><span class="edgeLabel"/></div></foreignObject></g><g class="edgeLabel"><foreignObject width="0" height="0" class="label" data-id="L_CACHE_TABLES_0"><div xmlns="http://www.w3.org/1999/xhtml" class="labelBkg" style="display:table-cell;white-space:nowrap;line-height:1.5;max-width:200px;text-align:center"><span class="edgeLabel"/></div></foreignObject></g></g><g class="nodes"><g id="my-svg-flowchart-XML-0" class="node default source" data-look="classic"><path d="M-28.5 0h239.14l28.5-57H0z" class="label-container" style="fill:#cffafe!important;stroke:#0891b2!important;stroke-width:2px!important" transform="translate(70 170.197)"/><g class="label" style="color:#0f172a!important" transform="translate(77.5 120.697)"><rect/><foreignObject width="195.641" height="42"><div xmlns="http://www.w3.org/1999/xhtml" style="color:#0f172a!important;display:table-cell;white-space:nowrap;line-height:1.5;max-width:200px;text-align:center"><span class="nodeLabel" style="color:#0f172a!important"><p>Credentialled XML<br/>fixtures · ladder · performance</p></span></div></foreignObject></g></g><g id="my-svg-flowchart-RPREP-1" class="node default process" data-look="classic"><g class="basic label-container outer-path"><path stroke="none" stroke-width="0" d="M-42.984-28.5h85.968l1.826.059 1.819.175 1.803.292 1.782.406 1.751.52 1.714.63 1.671.74 1.62.845 1.562.947 1.499 1.046 1.428 1.139 1.352 1.228 1.271 1.312 1.185 1.392 1.092 1.464.997 1.53.896 1.593c.204.421.407.843.793 1.646l.686 1.693.575 1.734.464 1.767.35 1.793.233 1.812.117 1.824V.913l-.117 1.824-.234 1.812-.35 1.793-.463 1.767-.575 1.734-.686 1.693-.793 1.646-.896 1.592-.997 1.531-1.092 1.464-1.185 1.392-1.27 1.312-1.353 1.228-1.428 1.14-1.499 1.045-1.562.947-1.62.845-1.67.74-1.715.63-1.751.52-1.782.406-1.803.292-1.819.175-1.826.059h-85.968l-1.826-.059-1.819-.175-1.803-.292-1.782-.406-1.751-.52-1.714-.63-1.671-.74-1.62-.845-1.562-.947-1.499-1.046-1.428-1.139-1.352-1.228-1.271-1.312-1.185-1.392q-.548-.733-1.092-1.464l-.997-1.53-.896-1.593-.793-1.646-.686-1.693-.575-1.734-.464-1.767-.35-1.793-.233-1.812-.117-1.824V-.913l.117-1.824.234-1.812.35-1.793.463-1.767.575-1.734.686-1.693.793-1.646.896-1.592.997-1.531 1.092-1.464 1.185-1.392 1.27-1.312 1.353-1.228 1.428-1.14 1.499-1.045 1.562-.947 1.62-.845 1.67-.74 1.715-.63 1.751-.52 1.782-.406 1.803-.292 1.819-.175 1.826-.059" style="fill:#e0f2fe!important;stroke:#0369a1!important;stroke-width:2px!important" transform="translate(447.61 141.697)"/><path fill="none" stroke-dasharray="0 0" stroke-width="2" d="M-42.984-28.5h85.968m-85.968 0h85.968m0 0 1.826.059m-1.826-.059 1.826.059m0 0 1.819.175m-1.819-.175 1.819.175m0 0 1.803.292m-1.803-.292 1.803.292m0 0 1.782.406m-1.782-.406 1.782.406m0 0c.636.19 1.273.378 1.751.52m-1.751-.52 1.751.52m0 0 1.714.63m-1.714-.63 1.714.63m0 0c.448.2.896.397 1.671.74m-1.67-.74 1.67.74m0 0 1.62.845m-1.62-.845 1.62.845m0 0 1.562.947m-1.562-.947 1.562.947m0 0 1.499 1.046m-1.499-1.046 1.499 1.046m0 0 1.428 1.139m-1.428-1.14 1.428 1.14m0 0 1.352 1.228m-1.352-1.228 1.352 1.228m0 0 1.271 1.312m-1.27-1.312 1.27 1.312m0 0 1.185 1.392m-1.185-1.392 1.185 1.392m0 0 1.092 1.464m-1.092-1.464 1.092 1.464m0 0 .997 1.53m-.997-1.53.997 1.53m0 0 .896 1.593m-.896-1.592.896 1.592m0 0 .793 1.646m-.793-1.646.793 1.646m0 0 .686 1.693m-.686-1.693.686 1.693m0 0 .575 1.734m-.575-1.734.575 1.734m0 0 .464 1.767m-.464-1.767.464 1.767m0 0 .35 1.793m-.35-1.793c.125.645.25 1.29.35 1.793m0 0 .233 1.812m-.234-1.812.234 1.812m0 0 .117 1.824m-.117-1.824.117 1.824m0 0V.913m0-1.826V.913m0 0-.117 1.824M71.47.913c-.03.451-.058.902-.117 1.824m0 0-.234 1.812m.234-1.812-.234 1.812m0 0-.35 1.793m.35-1.793-.35 1.793m0 0-.463 1.767m.464-1.767-.464 1.767m0 0-.575 1.734m.575-1.734-.575 1.734m0 0-.686 1.693m.686-1.693-.686 1.693m0 0-.793 1.646m.793-1.646-.793 1.646m0 0-.896 1.592m.896-1.592-.896 1.592m0 0-.997 1.531m.997-1.53-.997 1.53m0 0-1.092 1.464m1.092-1.464-1.092 1.464m0 0-1.185 1.392m1.185-1.392-1.185 1.392m0 0-1.27 1.312m1.27-1.312-1.27 1.312m0 0-1.353 1.228m1.352-1.228-1.352 1.228m0 0-1.428 1.14m1.428-1.14-1.428 1.14m0 0c-.49.34-.978.681-1.499 1.045m1.499-1.046-1.499 1.046m0 0-1.562.947m1.562-.947-1.562.947m0 0-1.62.845m1.62-.845-1.62.845m0 0-1.67.74m1.67-.74-1.67.74m0 0c-.394.144-.787.288-1.715.63m1.714-.63-1.714.63m0 0-1.751.52m1.751-.52-1.751.52m0 0-1.782.406m1.782-.406-1.782.406m0 0-1.803.292m1.803-.292-1.803.292m0 0-1.819.175m1.819-.175-1.819.175m0 0-1.826.059m1.826-.059-1.826.059m0 0h-85.968m85.968 0h-85.968m0 0-1.826-.059m1.826.059c-.638-.02-1.277-.04-1.826-.059m0 0-1.819-.175m1.819.175-1.819-.175m0 0-1.803-.292m1.803.292-1.803-.292m0 0-1.782-.406m1.782.406-1.782-.406m0 0-1.751-.52m1.751.52-1.751-.52m0 0-1.714-.63m1.714.63-1.714-.63m0 0-1.671-.74m1.67.74c-.59-.262-1.18-.524-1.67-.74m0 0-1.62-.845m1.62.845-1.62-.845m0 0-1.562-.947m1.562.947-1.562-.947m0 0-1.499-1.046m1.499 1.046-1.499-1.046m0 0-1.428-1.139m1.428 1.14-1.428-1.14m0 0-1.352-1.228m1.352 1.228-1.352-1.228m0 0-1.271-1.312m1.27 1.312-1.27-1.312m0 0-1.185-1.392m1.185 1.392-1.185-1.392m0 0-1.092-1.464m1.092 1.464-1.092-1.464m0 0-.997-1.53m.997 1.53-.997-1.53m0 0-.896-1.593m.896 1.592c-.21-.372-.42-.744-.896-1.592m0 0-.793-1.646m.793 1.646-.793-1.646m0 0-.686-1.693m.686 1.693-.686-1.693m0 0-.575-1.734m.575 1.734-.575-1.734m0 0-.464-1.767m.464 1.767-.464-1.767m0 0-.35-1.793m.35 1.793-.35-1.793m0 0-.233-1.812m.234 1.812-.234-1.812m0 0L-71.47.913m.117 1.824L-71.47.913m0 0V-.913m0 1.826V-.913m0 0 .117-1.824m-.117 1.824.117-1.824m0 0 .234-1.812m-.234 1.812.234-1.812m0 0 .35-1.793m-.35 1.793.35-1.793m0 0c.094-.363.19-.727.463-1.767m-.464 1.767.464-1.767m0 0 .575-1.734m-.575 1.734.575-1.734m0 0 .686-1.693m-.686 1.693.686-1.693m0 0 .793-1.646m-.793 1.646.793-1.646m0 0 .896-1.592m-.896 1.592.896-1.592m0 0 .997-1.531m-.997 1.53.997-1.53m0 0 1.092-1.464m-1.092 1.464 1.092-1.464m0 0 1.185-1.392m-1.185 1.392 1.185-1.392m0 0 1.27-1.312m-1.27 1.312 1.27-1.312m0 0 1.353-1.228m-1.352 1.228 1.352-1.228m0 0 1.428-1.14m-1.428 1.14 1.428-1.14m0 0 1.499-1.045m-1.499 1.046 1.499-1.046m0 0 1.562-.947m-1.562.947 1.562-.947m0 0 1.62-.845m-1.62.845 1.62-.845m0 0 1.67-.74m-1.67.74 1.67-.74m0 0 1.715-.63m-1.714.63 1.714-.63m0 0 1.751-.52m-1.751.52 1.751-.52m0 0 1.782-.406m-1.782.406 1.782-.406m0 0 1.803-.292m-1.803.292 1.803-.292m0 0 1.819-.175m-1.819.175 1.819-.175m0 0 1.826-.059m-1.826.059 1.826-.059m0 0" style="fill:#e0f2fe!important;stroke:#0369a1!important;stroke-width:2px!important" transform="translate(447.61 141.697)"/></g><g class="label" style="color:#0f172a!important" transform="translate(390.751 120.697)"><rect/><foreignObject width="113.719" height="42"><div xmlns="http://www.w3.org/1999/xhtml" style="color:#0f172a!important;display:table-cell;white-space:nowrap;line-height:1.5;max-width:200px;text-align:center"><span class="nodeLabel" style="fill:#e0f2fe!important;stroke:#0369a1!important;stroke-width:2px!important;color:#0f172a!important"><p>R provider refresh<br/>invoked by CLI</p></span></div></foreignObject></g></g><g id="my-svg-flowchart-CACHE-2" class="node default data" data-look="classic"><path d="M0 13.824a77.305 13.824 0 0 0 154.61 0 77.305 13.824 0 0 0-154.61 0v70.823a77.305 13.824 0 0 0 154.61 0V13.824" class="basic label-container outer-path" style="fill:#ccfbf1!important;stroke:#0f766e!important;stroke-width:2px!important" transform="translate(586.08 34)"/><g class="label" style="color:#0f172a!important" transform="translate(593.58 72.236)"><rect/><foreignObject width="139.609" height="42"><div xmlns="http://www.w3.org/1999/xhtml" style="color:#0f172a!important;display:table-cell;white-space:nowrap;line-height:1.5;max-width:200px;text-align:center"><span class="nodeLabel" style="color:#0f172a!important"><p>feed_cache_fixtures<br/>ladders · performance</p></span></div></foreignObject></g></g><g id="my-svg-flowchart-ODDS-3" class="node default data" data-look="classic"><path d="M0 11.794a55.82 11.794 0 0 0 111.64 0 55.82 11.794 0 0 0-111.64 0V59.59a55.82 11.794 0 0 0 111.64 0V11.794" class="basic label-container outer-path" style="fill:#ccfbf1!important;stroke:#0f766e!important;stroke-width:2px!important" transform="translate(607.564 164.467)"/><g class="label" style="color:#0f172a!important" transform="translate(615.064 199.658)"><rect/><foreignObject width="96.641" height="21"><div xmlns="http://www.w3.org/1999/xhtml" style="color:#0f172a!important;display:table-cell;white-space:nowrap;line-height:1.5;max-width:200px;text-align:center"><span class="nodeLabel" style="color:#0f172a!important"><p>odds_snapshots</p></span></div></foreignObject></g></g><g id="my-svg-flowchart-TABLES-4" class="node default data" data-look="classic"><path d="M0 13.632a74.945 13.632 0 0 0 149.89 0 74.945 13.632 0 0 0-149.89 0v70.632a74.945 13.632 0 0 0 149.89 0V13.632" class="basic label-container outer-path" style="fill:#ccfbf1!important;stroke:#0f766e!important;stroke-width:2px!important" transform="translate(807.69 34.288)"/><g class="label" style="color:#0f172a!important" transform="translate(815.19 72.236)"><rect/><foreignObject width="134.891" height="42"><div xmlns="http://www.w3.org/1999/xhtml" style="color:#0f172a!important;display:table-cell;white-space:nowrap;line-height:1.5;max-width:200px;text-align:center"><span class="nodeLabel" style="color:#0f172a!important"><p>Prepared SQLite<br/>train · infer · context</p></span></div></foreignObject></g></g></g></g></g></g><defs><filter id="my-svg-drop-shadow" width="130%" height="130%"><feDropShadow dx="4" dy="4" flood-color="#000" flood-opacity=".06" stdDeviation="0"/></filter></defs><defs><filter id="my-svg-drop-shadow-small" width="150%" height="150%"><feDropShadow dx="2" dy="2" flood-color="#000" flood-opacity=".06" stdDeviation="0"/></filter></defs><linearGradient id="my-svg-gradient" x1="0%" x2="100%" y1="0%" y2="0%" gradientUnits="objectBoundingBox"><stop offset="0%" stop-color="hsl(40.5882352941, 60%, 83.3333333333%)"/><stop offset="100%" stop-color="hsl(-79.4117647059, 60%, 83.3333333333%)"/></linearGradient></svg>